<?xml version="1.0" encoding="UTF-8"?>
<svg width="121px" height="16px" viewBox="0 0 121 16" version="1.1" xmlns="http://www.w3.org/2000/svg" xmlns:xlink="http://www.w3.org/1999/xlink">
    <!-- Generator: Sketch 63.1 (92452) - https://sketch.com/ -->
    <title>PLUS&amp;NEST</title>
    <desc>Created with Sketch.</desc>
    <g id="Page-1" stroke="none" stroke-width="1" fill="none" fill-rule="evenodd">
        <g id="plus-nest-dawid-tomczyk" transform="translate(-48.000000, -38.000000)" fill="#FFFFFF" fill-rule="nonzero">
            <g id="left-col" transform="translate(-58.000000, -25.000000)">
                <g id="menu">
                    <path d="M108.9,78 L109,77.9 L109,73 L110.6,73 C113.8,73 115.6,70.9 115.6,68.5 C115.6,66.1 113.8,64 110.6,64 L106.3,64 L106.2,64.1 L106.2,77.9 L106.3,78 L108.9,78 Z M110.4,70.2 L109,70.2 L109,66.8 L110.4,66.8 C111.7,66.8 112.5,67.3 112.5,68.5 C112.5,69.7 111.7,70.2 110.4,70.2 Z M125.625,78 L125.725,77.9 L125.725,75.3 L125.625,75.2 L120.325,75.2 L120.325,64.1 L120.225,64 L117.625,64 L117.525,64.1 L117.525,77.9 L117.625,78 L125.625,78 Z M132.65,78.3 C136.05,78.3 138.85,75.9 138.85,71.8 L138.85,64.1 L138.75,64 L136.15,64 L136.05,64.1 L136.05,71.4 C136.05,74.1 134.55,75.4 132.65,75.4 C130.75,75.4 129.25,74.1 129.25,71.4 L129.25,64.1 L129.15,64 L126.55,64 L126.45,64.1 L126.45,71.8 C126.45,75.9 129.25,78.3 132.65,78.3 Z M145.475,78.3 C148.175,78.3 150.175,76.2 150.175,73.8 C150.175,69.2 144.275,69.2 144.275,67.6 C144.275,67 144.575,66.6 145.275,66.6 C145.775,66.6 146.375,66.9 146.815,67.5 L147.015,67.5 L149.175,65.9 C148.075,64.4 146.975,63.7 145.275,63.7 C143.055,63.7 141.275,65.3 141.275,67.6 C141.275,71.5 147.175,71.4 147.175,73.8 C147.175,74.8 146.475,75.4 145.475,75.4 C144.675,75.4 143.775,75 143.275,73.66 L143.075,73.66 L140.775,75.2 C141.475,77.2 143.375,78.3 145.475,78.3 Z M162.425,78.3 C163.925,78.3 165.225,77.6 166.225,76.5 L167.725,78 L167.725,78 L171.125,78 L171.225,77.9 C170.025,76.7 168.985,75.56 167.925,74.4 C168.825,73.36 169.725,72.1 170.824999,70.6 L170.725,70.5 L167.625,70.5 C167.225,71.1 166.685,71.9 166.025,72.6 C165.685,72.3 164.425,70.9 164.225,70.6 C165.625,69.8 166.425,68.9 166.425,67.3 C166.425,65.3 164.825,63.7 162.725,63.7 C160.625,63.7 159.025,65.3 159.025,67.3 C159.025,68.5 159.425,69.2 160.125,70.1 C158.625,71 157.625,72.1 157.625,73.96 C157.625,76.4 159.785,78.3 162.425,78.3 Z M162.525,69.1 C162.025,68.6 161.625,68.1 161.625,67.6 C161.625,66.9 162.025,66.5 162.745,66.5 C163.425,66.5 163.825,66.9 163.825,67.6 C163.825,68.2 163.325,68.6 162.525,69.1 Z M162.425,75.5 C161.384999,75.5 160.525,74.8 160.525,73.96 C160.525,73 161.025,72.4 161.825,71.9 C162.625,72.7 163.425,73.7 164.325,74.6 C163.825,75.2 163.285,75.5 162.425,75.5 Z M181.374999,78 L181.474999,77.9 L181.474999,68.8 L188.474999,77.9 L188.674999,78 L191.374999,78 L191.474999,77.9 L191.474999,64.1 L191.374999,64 L188.774999,64 L188.674999,64.1 L188.674999,73.2 L181.674999,64.1 L181.474999,64 L178.774999,64 L178.674999,64.1 L178.674999,77.9 L178.774999,78 L181.374999,78 Z M203.699999,78 L203.799999,77.9 L203.799999,75.3 L203.699999,75.2 L196.799999,75.2 L196.799999,72.1 L201.699999,72.1 L201.799999,72 L201.799999,69.4 L201.699999,69.3 L196.799999,69.3 L196.799999,66.8 L203.499999,66.8 L203.599999,66.7 L203.599999,64.1 L203.499999,64 L194.099999,64 L193.999999,64.1 L193.999999,77.9 L194.099999,78 L203.699999,78 Z M209.824999,78.3 C212.524999,78.3 214.524999,76.2 214.524999,73.8 C214.524999,69.2 208.624999,69.2 208.624999,67.6 C208.624999,67 208.924999,66.6 209.624999,66.6 C210.124999,66.6 210.724999,66.9 211.164999,67.5 L211.364999,67.5 L213.524999,65.9 C212.424999,64.4 211.324999,63.7 209.624999,63.7 C207.404999,63.7 205.624999,65.3 205.624999,67.6 C205.624999,71.5 211.524999,71.4 211.524999,73.8 C211.524999,74.8 210.824999,75.4 209.824999,75.4 C209.024999,75.4 208.124999,75 207.624999,73.66 L207.424999,73.66 L205.124999,75.2 C205.824999,77.2 207.724999,78.3 209.824999,78.3 Z M222.149999,78 L222.249999,77.9 L222.249999,66.8 L226.349999,66.8 L226.449999,66.7 L226.449999,64.1 L226.349999,64 L215.349999,64 L215.249999,64.1 L215.249999,66.7 L215.349999,66.8 L219.449999,66.8 L219.449999,77.9 L219.549999,78 L222.149999,78 Z" id="PLUS&amp;NEST"></path>
                </g>
            </g>
        </g>
    </g>
</svg>