<svg xmlns="http://www.w3.org/2000/svg" xmlns:xlink="http://www.w3.org/1999/xlink" id="Layer_1" x="0px" y="0px" viewBox="0 0 28 30" style="enable-background:new 0 0 28 30;" xml:space="preserve">
<style type="text/css">
	.st0{fill-opacity:0;stroke:#E39074;stroke-width:1.5;}
</style>
<title>&amp;</title>
<desc>Created with Sketch.</desc>
<g id="Page-1">
	<g id="plus-nest-dawid-tomczyk" transform="translate(-378.000000, -152.000000)">
		<path id="_x26_" class="st0" d="M387.9,180.6c2.9,0,5.3-1.3,7.2-3.4l2.6,2.6c0.1,0.1,0.2,0.2,0.3,0.3h6.5l0.2-0.2    c-2.3-2.3-4.3-4.4-6.3-6.6c1.7-2,3.4-4.4,5.5-7.2l-0.2-0.2h-5.9c-0.8,1.1-1.8,2.7-3,4c-0.6-0.6-3-3.2-3.4-3.8    c2.7-1.5,4.2-3.2,4.2-6.3c0-3.8-3-6.8-7-6.8c-4,0-7,3-7,6.8c0,2.3,0.8,3.6,2.1,5.3c-2.9,1.7-4.8,3.8-4.8,7.3    C378.8,177,382.9,180.6,387.9,180.6z M388.1,163.1c-1-0.9-1.7-1.9-1.7-2.8c0-1.3,0.8-2.1,2.1-2.1c1.3,0,2.1,0.8,2.1,2.1    C390.5,161.4,389.6,162.1,388.1,163.1z M387.9,175.2c-2,0-3.6-1.3-3.6-2.9c0-1.8,1-3,2.5-3.9c1.5,1.5,3,3.4,4.8,5.1    C390.5,174.7,389.5,175.2,387.9,175.2z"></path>
	</g>
</g>
</svg>