<svg xmlns="http://www.w3.org/2000/svg" xmlns:xlink="http://www.w3.org/1999/xlink" id="Layer_1" x="0px" y="0px" viewBox="0 0 21.9 14.1" style="enable-background:new 0 0 21.9 14.1;" xml:space="preserve">
<style type="text/css">
	.st0{fill-rule:evenodd;clip-rule:evenodd;fill:#333333;}
</style>
<title>eye</title>
<desc>Created with Sketch.</desc>
<g id="Page-1">
	<g id="authentication-1280x700" transform="translate(-789.000000, -403.000000)">
		<g id="Fill-174-_x2B_-Fill-175-_x2B_-Fill-176" transform="translate(789.000000, 403.000000)">
			<path id="Fill-174" class="st0" d="M11,14.1c-7.4,0-10.8-6.5-10.9-6.8C0,7.2,0,7,0.1,6.8C0.2,6.5,3.6,0,11,0s10.8,6.5,10.9,6.8     c0.1,0.2,0.1,0.4,0,0.5C21.7,7.6,18.4,14.1,11,14.1L11,14.1z M1.3,7.1C2,8.3,5.1,12.9,11,12.9s9-4.7,9.7-5.9     c-0.7-1.2-3.8-5.9-9.7-5.9S2,5.9,1.3,7.1L1.3,7.1z"></path>
			<path id="Fill-175" class="st0" d="M11,12.9c-3.2,0-5.8-2.6-5.8-5.8S7.8,1.3,11,1.3s5.8,2.6,5.8,5.8S14.1,12.9,11,12.9L11,12.9z      M11,2.5c-2.5,0-4.6,2.1-4.6,4.6s2.1,4.6,4.6,4.6s4.6-2.1,4.6-4.6S13.5,2.5,11,2.5L11,2.5z"></path>
			<path id="Fill-176" class="st0" d="M11,10.3c-1.8,0-3.2-1.4-3.2-3.2c0-0.3,0.3-0.6,0.6-0.6S9,6.7,9,7.1c0,1.1,0.9,2,2,2     s2-0.9,2-2s-0.9-2-2-2c-0.3,0-0.6-0.3-0.6-0.6s0.3-0.6,0.6-0.6c1.8,0,3.2,1.4,3.2,3.2S12.7,10.3,11,10.3"></path>
		</g>
	</g>
</g>
</svg>