<svg xmlns="http://www.w3.org/2000/svg" xmlns:xlink="http://www.w3.org/1999/xlink" width="222px" height="30px" viewBox="0 0 222 30"><title>Group</title><desc>Created with Sketch.</desc><g id="Page-1" stroke="none" stroke-width="1" fill="none" fill-rule="evenodd"><g id="plus-nest-dawid-tomczyk" transform="translate(-284.000000, -152.000000)" fill="#000000" fill-rule="nonzero"><g id="top-section" transform="translate(-14.000000, 0.000000)"><g id="title" transform="translate(298.000000, 152.000000)"><g id="Group" transform="translate(0.280000, 0.830000)"><path d="M5.13,27.17 L5.32,26.98 L5.32,17.67 L8.36,17.67 C14.44,17.67 17.86,13.68 17.86,9.12 C17.86,4.56 14.44,0.57 8.36,0.57 L0.19,0.57 L1.42108547e-14,0.76 L1.42108547e-14,26.98 L0.19,27.17 L5.13,27.17 Z M7.98,12.35 L5.32,12.35 L5.32,5.89 L7.98,5.89 C10.45,5.89 11.97,6.84 11.97,9.12 C11.97,11.4 10.45,12.35 7.98,12.35 Z M36.77,27.17 L36.96,26.98 L36.96,22.04 L36.77,21.85 L26.7,21.85 L26.7,0.76 L26.51,0.57 L21.57,0.57 L21.38,0.76 L21.38,26.98 L21.57,27.17 L36.77,27.17 Z M49.9799999,27.74 C56.4399999,27.74 61.7599999,23.18 61.7599999,15.39 L61.7599999,0.76 L61.5699999,0.57 L56.6299999,0.57 L56.4399999,0.76 L56.4399999,14.63 C56.4399999,19.76 53.5899999,22.23 49.9799999,22.23 C46.3699999,22.23 43.5199999,19.76 43.5199999,14.63 L43.5199999,0.76 L43.3299999,0.57 L38.3899999,0.57 L38.1999999,0.76 L38.1999999,15.39 C38.1999999,23.18 43.5199999,27.74 49.9799999,27.74 Z M74.2099999,27.74 C79.3399999,27.74 83.1399999,23.75 83.1399999,19.19 C83.1399999,10.45 71.9299999,10.45 71.9299999,7.41 C71.9299999,6.27 72.4999999,5.51 73.8299999,5.51 C74.7799999,5.51 75.9199999,6.08 76.7559999,7.22 L77.1359999,7.22 L81.2399999,4.18 C79.1499999,1.33 77.0599999,3.55271368e-15 73.8299999,3.55271368e-15 C69.6119999,3.55271368e-15 66.2299999,3.04 66.2299999,7.41 C66.2299999,14.82 77.4399999,14.63 77.4399999,19.19 C77.4399999,21.09 76.1099999,22.23 74.2099999,22.23 C72.6899999,22.23 70.9799999,21.47 70.0299999,18.924 L69.6499999,18.924 L65.2799999,21.85 C66.6099999,25.65 70.2199999,27.74 74.2099999,27.74 Z" id="PLUS"></path><path d="M136.13,27.17 L136.32,26.98 L136.32,9.69 L149.62,26.98 L150,27.17 L155.13,27.17 L155.32,26.98 L155.32,0.76 L155.13,0.57 L150.19,0.57 L150,0.76 L150,18.05 L136.7,0.76 L136.32,0.57 L131.19,0.57 L131,0.76 L131,26.98 L131.19,27.17 L136.13,27.17 Z M178.41,27.17 L178.6,26.98 L178.6,22.04 L178.41,21.85 L165.3,21.85 L165.3,15.96 L174.61,15.96 L174.8,15.77 L174.8,10.83 L174.61,10.64 L165.3,10.64 L165.3,5.89 L178.03,5.89 L178.22,5.7 L178.22,0.76 L178.03,0.57 L160.17,0.57 L159.98,0.76 L159.98,26.98 L160.17,27.17 L178.41,27.17 Z M189.91,27.74 C195.04,27.74 198.84,23.75 198.84,19.19 C198.84,10.45 187.63,10.45 187.63,7.41 C187.63,6.27 188.2,5.51 189.53,5.51 C190.48,5.51 191.62,6.08 192.456,7.22 L192.836,7.22 L196.94,4.18 C194.85,1.33 192.76,3.55271368e-15 189.53,3.55271368e-15 C185.312,3.55271368e-15 181.93,3.04 181.93,7.41 C181.93,14.82 193.14,14.63 193.14,19.19 C193.14,21.09 191.81,22.23 189.91,22.23 C188.39,22.23 186.68,21.47 185.73,18.924 L185.35,18.924 L180.98,21.85 C182.31,25.65 185.92,27.74 189.91,27.74 Z M213.19,27.17 L213.38,26.98 L213.38,5.89 L221.17,5.89 L221.36,5.7 L221.36,0.76 L221.17,0.57 L200.27,0.57 L200.08,0.76 L200.08,5.7 L200.27,5.89 L208.06,5.89 L208.06,26.98 L208.25,27.17 L213.19,27.17 Z" id="NEST"></path><path d="M103.6,27.74 C106.45,27.74 108.92,26.41 110.82,24.32 L113.39013,26.89013 C113.4819,26.9819 113.575,27.075 113.67,27.17 L120.13,27.17 L120.32,26.98 C118.04,24.7 116.064,22.534 114.05,20.33 C115.76,18.354 117.47,15.96 119.56,13.11 L119.37,12.92 L113.48,12.92 C112.72,14.06 111.694,15.58 110.44,16.91 C109.794,16.34 107.4,13.68 107.02,13.11 C109.68,11.59 111.2,9.88 111.2,6.84 C111.2,3.04 108.16,3.55271368e-15 104.17,3.55271368e-15 C100.18,3.55271368e-15 97.14,3.04 97.14,6.84 C97.14,9.12 97.9,10.45 99.23,12.16 C96.38,13.87 94.48,15.96 94.48,19.494 C94.48,24.13 98.584,27.74 103.6,27.74 Z M103.79,10.26 C102.84,9.31 102.08,8.36 102.08,7.41 C102.08,6.08 102.84,5.32 104.208,5.32 C105.5,5.32 106.26,6.08 106.26,7.41 C106.26,8.55 105.31,9.31 103.79,10.26 Z M103.6,22.42 C101.624,22.42 99.99,21.09 99.99,19.494 C99.99,17.67 100.94,16.53 102.46,15.58 C103.98,17.1 105.5,19 107.21,20.71 C106.26,21.85 105.234,22.42 103.6,22.42 Z" id="&amp;" stroke="#E39074" stroke-width="1.5" fill-opacity="0"></path></g></g></g></g></g></svg>