<svg xmlns="http://www.w3.org/2000/svg" xmlns:xlink="http://www.w3.org/1999/xlink" width="52px" height="18px" viewBox="0 0 52 18"><title>Shape</title><desc>Created with Sketch.</desc><g id="Page-1" stroke="none" stroke-width="1" fill="none" fill-rule="evenodd"><g id="plus-nest-dawid-tomczyk" transform="translate(-159.000000, -495.000000)" fill="#000000" fill-rule="nonzero" stroke="#000000" stroke-width="0.2"><g id="left-col" transform="translate(-58.000000, -25.000000)"><g id="next-btn" transform="translate(40.000000, 494.000000)"><g id="Down-7-Copy" transform="translate(203.263158, 35.236842) rotate(-90.000000) translate(-203.263158, -35.236842) translate(194.763158, 9.236842)"><path d="M7.9522253,0.447368421 L7.9522253,49.7049527 L0.83416883,42.5871303 C0.727426495,42.4803914 0.587301979,42.4269868 0.44715944,42.4269868 C0.307016901,42.4269868 0.166892386,42.4803914 0.0601500506,42.5871303 C-0.0465935673,42.6938704 -0.1,42.8339921 -0.1,42.9741316 C-0.1,43.1142711 -0.0465935673,43.2543928 0.0601500506,43.3611329 L8.81898092,51.4809518 L16.9390668,43.3611329 C17.0462419,43.2539613 17.0998018,43.1139859 17.0999995,42.9740216 C17.1001974,42.8338889 17.0468962,42.6937145 16.9401422,42.5864166 C16.8332192,42.4794967 16.6930947,42.4260921 16.5529522,42.4260921 C16.4128097,42.4260921 16.2726851,42.4794967 16.1659428,42.5862355 L9.04699156,49.7049527 L9.04699156,0.447368421 C9.04699156,0.296294361 8.9856978,0.159443822 8.88661782,0.0603671067 C8.79389239,-0.0323552799 8.68100017,-0.1216091 8.15474462,0.0352452311 L8.13173853,0.0421823998 C8.12515635,0.048106513 8.11880364,0.0541627176 7.9522253,0.447368421 Z" id="Shape"></path></g></g></g></g></g></svg>