<svg xmlns="http://www.w3.org/2000/svg" xmlns:xlink="http://www.w3.org/1999/xlink" id="Layer_1" x="0px" y="0px" viewBox="0 0 10 10" style="enable-background:new 0 0 10 10;" xml:space="preserve">
<style type="text/css">
	.st0{fill:#FFFFFF;}
</style>
<title>Share Copy</title>
<desc>Created with Sketch.</desc>
<g id="Page-1">
	<g id="plus-nest-dawid-tomczyk" transform="translate(-846.000000, -680.000000)">
		<g id="right-col" transform="translate(749.000000, 0.000000)">
			<g id="share-icons" transform="translate(36.000000, 679.000000)">
				<g id="Share-Copy" transform="translate(61.000000, 1.000000)">
					<path id="Shape" class="st0" d="M8.3,6.7C7.8,6.7,7.2,7,6.9,7.4L3.2,5.5C3.3,5.4,3.3,5.2,3.3,5s0-0.4-0.1-0.6l3.7-1.9       C7.2,3,7.8,3.3,8.3,3.3c0.9,0,1.7-0.7,1.7-1.7S9.3,0,8.3,0S6.7,0.7,6.7,1.7c0,0.2,0,0.4,0.1,0.6L3.1,4.1       C2.8,3.6,2.2,3.3,1.7,3.3C0.7,3.3,0,4.1,0,5s0.7,1.7,1.7,1.7c0.6,0,1.1-0.3,1.4-0.7l3.7,1.9C6.7,8,6.7,8.1,6.7,8.3       c0,0.9,0.7,1.7,1.7,1.7S10,9.3,10,8.3S9.3,6.7,8.3,6.7z"></path>
				</g>
			</g>
		</g>
	</g>
</g>
</svg>