<svg xmlns="http://www.w3.org/2000/svg" xmlns:xlink="http://www.w3.org/1999/xlink" id="Layer_1" x="0px" y="0px" viewBox="0 0 33.9 34.9" style="enable-background:new 0 0 33.9 34.9;" xml:space="preserve">
<style type="text/css">
	.st0{opacity:0.5;fill:none;stroke:#FFFFFF;enable-background:new    ;}
	.st1{fill:#FFFFFF;}
</style>
<title>share-icon</title>
<desc>Created with Sketch.</desc>
<g id="Page-1">
	<g id="plus-nest-dawid-tomczyk" transform="translate(-422.000000, -634.000000)">
		<g id="hero-img" transform="translate(213.000000, 209.000000)">
			<g id="share-icon" transform="translate(209.000000, 426.000000)">
				<ellipse id="Oval-5-Copy-2" class="st0" cx="17" cy="16.4" rx="16.5" ry="16.9"></ellipse>
				<g id="Share-Copy" transform="translate(10.203097, 9.809836)">
					<path id="Shape" class="st1" d="M9.9,7.8c-0.7,0-1.3,0.4-1.7,0.9L3.6,6.4C3.7,6.2,3.7,6,3.7,5.7s0-0.5-0.1-0.7l4.6-2.3       c0.4,0.6,1,0.9,1.7,0.9c1.1,0,2-0.9,2-2.1s-0.9-2.1-2-2.1s-2,0.9-2,2.1c0,0.2,0,0.5,0.1,0.7L3.4,4.5C3,4,2.4,3.6,1.7,3.6       c-1.1,0-2,0.9-2,2.1s0.9,2.1,2,2.1c0.7,0,1.3-0.4,1.7-0.9L8,9.2C7.9,9.4,7.8,9.7,7.8,9.9c0,1.2,0.9,2.1,2,2.1s2-0.9,2-2.1       S11,7.8,9.9,7.8z"></path>
				</g>
			</g>
		</g>
	</g>
</g>
</svg>